<?xml version="1.0" encoding="utf-8"?>
<!-- Generator: Adobe Illustrator 26.1.0, SVG Export Plug-In . SVG Version: 6.00 Build 0)  -->
<svg version="1.1" id="Layer_1" xmlns="http://www.w3.org/2000/svg" xmlns:xlink="http://www.w3.org/1999/xlink" x="0px" y="0px"
	 viewBox="0 0 285 60" style="enable-background:new 0 0 285 60;" xml:space="preserve">
<style type="text/css">
	.st0{fill:none;stroke:#FFFFFF;}
	.st1{fill:#FFFFFF;}
</style>
<circle class="st0" cx="30" cy="30" r="29.5"/>
<path class="st1" d="M63.2,10.5l-2.1-3.1l-1.8-1.6l0-1.3L58.4,4l-1.1,2.3l-1.6-1l-0.6,0.6L55.8,7l-9.2,8.8L32,23l-4.4,1l-1,0.5
	L23.9,28l-1.1,3.8l-0.3,2.1l0.6,1.3l0.1-0.5l1-3.8l-1,7.6l-1.1,3.4L20,52.4h1.9l-0.6-0.9l1-5l3.7-7.5l-0.7,2.8l2.9,10.6h2l-0.8-1.1
	l-1.4-4.2L27.5,41l2.1-4.9l1.3-1.3l6,0l1.1,1L36,50.1l0.1,2.3h1.9l-0.7-1l0.3-5.5l2.9-10l0.4,0l6.4,16.5h1.9l-1-1l-1.7-4.7
	l-2.7-11.8l0.7-6.1L44,27.2l0.3-1.2l12.4-14l1.9-0.4l4.8,1.7l0.3-1.3L63.2,10.5z"/>
<g>
	<path class="st1" d="M79.6,48V36.7h-4.2v-1.5h10.1v1.5h-4.2V48H79.6z"/>
	<path class="st1" d="M86.4,48v-9.3h1.4v1.4c0.4-0.7,0.7-1.1,1-1.3c0.3-0.2,0.6-0.3,1-0.3c0.5,0,1.1,0.2,1.6,0.5l-0.5,1.5
		c-0.4-0.2-0.8-0.3-1.2-0.3c-0.3,0-0.7,0.1-0.9,0.3c-0.3,0.2-0.5,0.5-0.6,0.9c-0.2,0.6-0.3,1.2-0.3,1.8V48H86.4z"/>
	<path class="st1" d="M98.4,46.8c-0.6,0.5-1.1,0.8-1.7,1c-0.5,0.2-1.1,0.3-1.7,0.3c-1,0-1.8-0.2-2.3-0.7c-0.5-0.5-0.8-1.1-0.8-1.9
		c0-0.5,0.1-0.9,0.3-1.2c0.2-0.4,0.5-0.7,0.8-0.9c0.3-0.2,0.7-0.4,1.1-0.5c0.3-0.1,0.8-0.2,1.4-0.2c1.3-0.2,2.2-0.3,2.8-0.5
		c0-0.2,0-0.4,0-0.4c0-0.6-0.1-1.1-0.4-1.4c-0.4-0.4-1-0.5-1.8-0.5c-0.7,0-1.3,0.1-1.6,0.4c-0.4,0.3-0.6,0.7-0.8,1.4l-1.5-0.2
		c0.1-0.7,0.4-1.2,0.7-1.6c0.3-0.4,0.8-0.7,1.4-0.9c0.6-0.2,1.3-0.3,2.1-0.3c0.8,0,1.4,0.1,1.9,0.3c0.5,0.2,0.9,0.4,1.1,0.7
		c0.2,0.3,0.4,0.6,0.5,1.1c0.1,0.3,0.1,0.7,0.1,1.4v2.1c0,1.5,0,2.4,0.1,2.8c0.1,0.4,0.2,0.8,0.4,1.1h-1.6
		C98.6,47.7,98.5,47.3,98.4,46.8z M98.3,43.3c-0.6,0.2-1.4,0.4-2.6,0.6c-0.6,0.1-1.1,0.2-1.4,0.3c-0.3,0.1-0.5,0.3-0.6,0.5
		s-0.2,0.5-0.2,0.7c0,0.4,0.2,0.8,0.5,1c0.3,0.3,0.8,0.4,1.4,0.4c0.6,0,1.1-0.1,1.6-0.4c0.5-0.3,0.8-0.6,1-1.1
		c0.2-0.4,0.3-0.9,0.3-1.6V43.3z"/>
	<path class="st1" d="M104.9,48l-3.5-9.3h1.7l2,5.5c0.2,0.6,0.4,1.2,0.6,1.9c0.1-0.5,0.3-1.1,0.6-1.8l2.1-5.6h1.6l-3.5,9.3H104.9z"
		/>
	<path class="st1" d="M117.6,45l1.6,0.2c-0.3,0.9-0.7,1.7-1.4,2.2c-0.7,0.5-1.6,0.8-2.7,0.8c-1.4,0-2.4-0.4-3.2-1.3
		c-0.8-0.8-1.2-2-1.2-3.5c0-1.6,0.4-2.8,1.2-3.6c0.8-0.9,1.8-1.3,3.1-1.3c1.2,0,2.2,0.4,3,1.3c0.8,0.8,1.2,2,1.2,3.6
		c0,0.1,0,0.2,0,0.4h-6.9c0.1,1,0.3,1.8,0.9,2.3c0.5,0.5,1.2,0.8,1.9,0.8c0.6,0,1.1-0.2,1.5-0.5C117,46.1,117.3,45.7,117.6,45z
		 M112.4,42.5h5.2c-0.1-0.8-0.3-1.4-0.6-1.8c-0.5-0.6-1.1-0.9-1.9-0.9c-0.7,0-1.3,0.2-1.8,0.7C112.7,41,112.5,41.7,112.4,42.5z"/>
	<path class="st1" d="M121.1,48V35.2h1.6V48H121.1z"/>
	<path class="st1" d="M136.1,46.8c-0.6,0.5-1.1,0.8-1.7,1c-0.5,0.2-1.1,0.3-1.7,0.3c-1,0-1.8-0.2-2.3-0.7c-0.5-0.5-0.8-1.1-0.8-1.9
		c0-0.5,0.1-0.9,0.3-1.2c0.2-0.4,0.5-0.7,0.8-0.9c0.3-0.2,0.7-0.4,1.1-0.5c0.3-0.1,0.8-0.2,1.4-0.2c1.3-0.2,2.2-0.3,2.8-0.5
		c0-0.2,0-0.4,0-0.4c0-0.6-0.1-1.1-0.4-1.4c-0.4-0.4-1-0.5-1.8-0.5c-0.7,0-1.3,0.1-1.6,0.4c-0.4,0.3-0.6,0.7-0.8,1.4l-1.5-0.2
		c0.1-0.7,0.4-1.2,0.7-1.6s0.8-0.7,1.4-0.9c0.6-0.2,1.3-0.3,2.1-0.3c0.8,0,1.4,0.1,1.9,0.3c0.5,0.2,0.9,0.4,1.1,0.7
		c0.2,0.3,0.4,0.6,0.5,1.1c0.1,0.3,0.1,0.7,0.1,1.4v2.1c0,1.5,0,2.4,0.1,2.8c0.1,0.4,0.2,0.8,0.4,1.1h-1.6
		C136.3,47.7,136.2,47.3,136.1,46.8z M136,43.3c-0.6,0.2-1.4,0.4-2.6,0.6c-0.6,0.1-1.1,0.2-1.4,0.3c-0.3,0.1-0.5,0.3-0.6,0.5
		s-0.2,0.5-0.2,0.7c0,0.4,0.2,0.8,0.5,1c0.3,0.3,0.8,0.4,1.4,0.4c0.6,0,1.1-0.1,1.6-0.4s0.8-0.6,1-1.1c0.2-0.4,0.3-0.9,0.3-1.6V43.3
		z"/>
	<path class="st1" d="M139.7,48.8l1.5,0.2c0.1,0.5,0.2,0.8,0.5,1c0.4,0.3,0.9,0.4,1.6,0.4c0.7,0,1.3-0.1,1.7-0.4
		c0.4-0.3,0.7-0.7,0.8-1.2c0.1-0.3,0.1-1,0.1-2c-0.7,0.8-1.5,1.2-2.6,1.2c-1.3,0-2.3-0.5-3-1.4c-0.7-0.9-1-2-1-3.3
		c0-0.9,0.2-1.7,0.5-2.4c0.3-0.7,0.8-1.3,1.4-1.7s1.3-0.6,2.1-0.6c1.1,0,2,0.4,2.7,1.3v-1.1h1.4v8c0,1.4-0.1,2.5-0.4,3.1
		c-0.3,0.6-0.8,1.1-1.4,1.4c-0.6,0.3-1.4,0.5-2.3,0.5c-1.1,0-2-0.2-2.7-0.7C140,50.5,139.7,49.8,139.7,48.8z M141,43.2
		c0,1.2,0.2,2.1,0.7,2.7c0.5,0.6,1.1,0.8,1.8,0.8c0.7,0,1.3-0.3,1.8-0.8c0.5-0.6,0.7-1.4,0.7-2.6c0-1.1-0.3-2-0.8-2.6
		s-1.1-0.9-1.8-0.9c-0.7,0-1.3,0.3-1.8,0.9C141.3,41.2,141,42.1,141,43.2z"/>
	<path class="st1" d="M156.3,45l1.6,0.2c-0.3,0.9-0.7,1.7-1.4,2.2c-0.7,0.5-1.6,0.8-2.7,0.8c-1.4,0-2.4-0.4-3.2-1.3
		c-0.8-0.8-1.2-2-1.2-3.5c0-1.6,0.4-2.8,1.2-3.6s1.8-1.3,3.1-1.3c1.2,0,2.2,0.4,3,1.3s1.2,2,1.2,3.6c0,0.1,0,0.2,0,0.4h-6.9
		c0.1,1,0.3,1.8,0.9,2.3s1.2,0.8,1.9,0.8c0.6,0,1.1-0.2,1.5-0.5C155.7,46.1,156.1,45.7,156.3,45z M151.1,42.5h5.2
		c-0.1-0.8-0.3-1.4-0.6-1.8c-0.5-0.6-1.1-0.9-1.9-0.9c-0.7,0-1.3,0.2-1.8,0.7C151.5,41,151.2,41.7,151.1,42.5z"/>
	<path class="st1" d="M159.9,48v-9.3h1.4V40c0.7-1,1.7-1.5,2.9-1.5c0.6,0,1.1,0.1,1.5,0.3s0.8,0.5,1.1,0.8s0.4,0.7,0.5,1.2
		c0.1,0.3,0.1,0.8,0.1,1.5V48h-1.6v-5.6c0-0.6-0.1-1.1-0.2-1.4c-0.1-0.3-0.3-0.6-0.6-0.8c-0.3-0.2-0.7-0.3-1.1-0.3
		c-0.7,0-1.2,0.2-1.7,0.6c-0.5,0.4-0.7,1.2-0.7,2.4V48H159.9z"/>
	<path class="st1" d="M175.9,44.6l1.5,0.2c-0.2,1.1-0.6,1.9-1.3,2.5c-0.7,0.6-1.5,0.9-2.6,0.9c-1.3,0-2.3-0.4-3.1-1.2
		c-0.8-0.8-1.2-2-1.2-3.6c0-1,0.2-1.9,0.5-2.6c0.3-0.7,0.8-1.3,1.5-1.7c0.7-0.4,1.4-0.6,2.2-0.6c1,0,1.8,0.3,2.5,0.8
		c0.6,0.5,1,1.2,1.2,2.2l-1.5,0.2c-0.1-0.6-0.4-1.1-0.8-1.4c-0.4-0.3-0.8-0.5-1.3-0.5c-0.8,0-1.4,0.3-1.9,0.9
		c-0.5,0.6-0.7,1.5-0.7,2.7c0,1.2,0.2,2.1,0.7,2.7c0.5,0.6,1.1,0.8,1.9,0.8c0.6,0,1.1-0.2,1.5-0.6C175.5,46,175.7,45.4,175.9,44.6z"
		/>
	<path class="st1" d="M178.7,51.5l-0.2-1.5c0.3,0.1,0.6,0.1,0.9,0.1c0.3,0,0.6-0.1,0.8-0.2c0.2-0.1,0.4-0.3,0.5-0.5
		c0.1-0.2,0.3-0.5,0.5-1.2c0-0.1,0.1-0.2,0.1-0.4l-3.5-9.3h1.7l1.9,5.4c0.2,0.7,0.5,1.4,0.7,2.1c0.2-0.7,0.4-1.4,0.6-2.1l2-5.4h1.6
		l-3.5,9.4c-0.4,1-0.7,1.7-0.9,2.1c-0.3,0.5-0.6,0.9-1,1.1c-0.4,0.2-0.8,0.4-1.3,0.4C179.4,51.7,179,51.7,178.7,51.5z"/>
</g>
<g>
	<path class="st1" d="M75.8,24.5v-3.8h1.6l0.3,2.5l0.3,0.3c0.3,0.1,0.6,0.2,0.9,0.2c0.3,0,0.6,0.1,0.9,0.1c0.8,0,1.5-0.2,2-0.5
		c0.5-0.4,0.7-0.8,0.7-1.4c0-0.5-0.2-1-0.5-1.4c-0.3-0.4-0.9-0.8-1.7-1.2c-0.1-0.1-0.3-0.2-0.6-0.3c-1-0.4-1.7-0.9-2.1-1.3
		c-0.5-0.4-0.8-0.8-1.1-1.3c-0.3-0.5-0.4-1-0.4-1.5c0-1.2,0.5-2.2,1.4-3c0.9-0.8,2.1-1.2,3.5-1.2c0.6,0,1.3,0.1,1.9,0.2
		c0.7,0.1,1.3,0.3,2,0.5v3.4h-1.5l-0.3-2.2l-0.3-0.3c-0.2-0.1-0.4-0.2-0.7-0.2c-0.3,0-0.5-0.1-0.9-0.1c-0.7,0-1.3,0.2-1.8,0.5
		c-0.4,0.4-0.7,0.8-0.7,1.4c0,0.4,0.1,0.8,0.4,1.2c0.3,0.3,0.7,0.7,1.3,1.1c0.1,0.1,0.6,0.3,1.2,0.6c0.7,0.3,1.3,0.6,1.7,0.9
		c0.6,0.4,1.1,0.9,1.4,1.4c0.3,0.5,0.5,1.1,0.5,1.7c0,1.3-0.5,2.3-1.5,3.1c-1,0.8-2.3,1.2-4,1.2c-0.7,0-1.4-0.1-2-0.2
		C77.1,24.9,76.4,24.8,75.8,24.5z"/>
	<path class="st1" d="M93.5,23.8c-0.7,0.5-1.3,0.8-1.9,1c-0.6,0.2-1.1,0.3-1.7,0.3c-0.8,0-1.5-0.3-2-0.8c-0.5-0.5-0.8-1.2-0.8-1.9
		c0-1,0.4-1.7,1.1-2.3c0.7-0.5,2.5-1.1,5.2-1.7v-0.6c0-0.8-0.2-1.3-0.5-1.6c-0.3-0.3-0.8-0.5-1.5-0.5c-0.1,0-0.3,0-0.5,0
		c-0.2,0-0.3,0.1-0.5,0.1v2h-1.9c-0.3,0-0.6-0.1-0.7-0.2c-0.2-0.1-0.2-0.3-0.2-0.6c0-0.7,0.4-1.2,1.3-1.7c0.9-0.5,1.9-0.7,3.2-0.7
		c1.4,0,2.4,0.3,3,0.8s0.9,1.5,0.9,2.9v5.4l0.3,0.3l1.1,0.1V25h-3.7L93.5,23.8z M93.5,23v-3.4c-1.4,0.3-2.3,0.6-2.8,1
		C90.2,20.9,90,21.4,90,22c0,0.5,0.1,0.9,0.4,1.1c0.3,0.3,0.7,0.4,1.1,0.4c0.3,0,0.6-0.1,0.9-0.2C92.8,23.3,93.1,23.2,93.5,23z"/>
	<path class="st1" d="M98.4,25v-1l1-0.1l0.3-0.3v-7.2h-1.3v-0.8l1.3-0.6c0-1,0.2-1.9,0.5-2.6c0.4-0.8,0.9-1.4,1.6-1.9
		c0.4-0.3,0.8-0.5,1.2-0.6c0.4-0.2,0.9-0.2,1.3-0.2c0.6,0,1.1,0.1,1.4,0.4c0.4,0.3,0.5,0.6,0.5,1.1c0,0.3-0.1,0.5-0.3,0.8
		c-0.2,0.2-0.5,0.4-0.9,0.5l-2-1.8c-0.3,0.3-0.5,0.7-0.6,1.2c-0.1,0.5-0.2,1.2-0.2,2v0.2v1.3h2.8v1.3h-2.8v7.3l0.3,0.3L104,24v1
		H98.4z"/>
	<path class="st1" d="M112,23.8c-0.7,0.5-1.3,0.8-1.9,1c-0.6,0.2-1.1,0.3-1.7,0.3c-0.8,0-1.5-0.3-2-0.8c-0.5-0.5-0.8-1.2-0.8-1.9
		c0-1,0.4-1.7,1.1-2.3c0.7-0.5,2.5-1.1,5.2-1.7v-0.6c0-0.8-0.2-1.3-0.5-1.6c-0.3-0.3-0.8-0.5-1.5-0.5c-0.1,0-0.3,0-0.5,0
		c-0.2,0-0.3,0.1-0.5,0.1v2h-1.9c-0.3,0-0.6-0.1-0.7-0.2c-0.2-0.1-0.2-0.3-0.2-0.6c0-0.7,0.4-1.2,1.3-1.7c0.9-0.5,1.9-0.7,3.2-0.7
		c1.4,0,2.4,0.3,3,0.8s0.9,1.5,0.9,2.9v5.4l0.3,0.3l1.1,0.1V25h-3.7L112,23.8z M112,23v-3.4c-1.4,0.3-2.3,0.6-2.8,1
		c-0.5,0.4-0.8,0.8-0.8,1.5c0,0.5,0.1,0.9,0.4,1.1c0.3,0.3,0.7,0.4,1.1,0.4c0.3,0,0.6-0.1,0.9-0.2C111.2,23.3,111.6,23.2,112,23z"/>
	<path class="st1" d="M116.8,25v-0.9l1.1-0.1l0.3-0.3v-7.2h-1.5v-0.8l3.1-1h1l-0.1,2.1c0.4-0.4,0.7-0.7,1.2-1.1s0.8-0.7,1.3-1
		c0.1,0,0.2,0,0.3,0c0.1,0,0.1,0,0.2,0c0.2,0,0.4,0,0.7,0.1c0.2,0.1,0.5,0.1,0.7,0.3l-0.3,2.9h-1.1c-0.2-0.3-0.3-0.4-0.6-0.6
		c-0.2-0.1-0.5-0.2-0.8-0.2c-0.2,0-0.4,0-0.6,0.1c-0.2,0.1-0.5,0.2-0.8,0.4v6l0.3,0.3l1.5,0.1V25H116.8z"/>
	<path class="st1" d="M128.6,14.7h1v9l0.3,0.3l1.2,0.1V25h-5.5v-0.9l1.1-0.1l0.3-0.3v-7.2h-1.4v-0.8L128.6,14.7z M128.3,9.9
		c0.5,0,0.8,0.1,1.1,0.4c0.3,0.3,0.4,0.7,0.4,1.1c0,0.5-0.1,0.8-0.4,1.1c-0.3,0.3-0.7,0.4-1.1,0.4c-0.4,0-0.8-0.1-1.1-0.4
		c-0.3-0.3-0.4-0.7-0.4-1.1c0-0.4,0.1-0.8,0.4-1.1C127.5,10,127.9,9.9,128.3,9.9z"/>
	<path class="st1" d="M137.7,11h12v3.7h-1.4l-0.4-2.2l-0.3-0.3h-2.5v11.3l0.4,0.3l1.4,0.1v1h-6.2v-1l1.4-0.1l0.3-0.3V12.2h-2.5
		l-0.3,0.3l-0.4,2.2h-1.4V11z"/>
	<path class="st1" d="M150.8,17.9c0-1.1,0.2-2.2,0.5-3.1c0.4-0.9,0.9-1.7,1.6-2.4c0.7-0.6,1.4-1.1,2.2-1.4c0.8-0.3,1.7-0.5,2.7-0.5
		c0.9,0,1.7,0.1,2.5,0.4c0.8,0.3,1.5,0.7,2.1,1.2c0.8,0.7,1.4,1.5,1.8,2.5c0.4,1,0.6,2.1,0.6,3.2c0,1.1-0.2,2.1-0.6,3
		c-0.4,0.9-0.9,1.7-1.7,2.4c-0.6,0.6-1.4,1-2.2,1.4c-0.8,0.3-1.7,0.5-2.5,0.5c-2.2,0-3.9-0.7-5.2-2
		C151.5,21.9,150.8,20.2,150.8,17.9z M157.9,12c-1.2,0-2.2,0.5-2.9,1.6c-0.7,1.1-1.1,2.5-1.1,4.3c0,1.8,0.4,3.3,1.1,4.4
		c0.7,1.1,1.7,1.7,2.8,1.7c1.2,0,2.1-0.5,2.9-1.6c0.7-1.1,1.1-2.5,1.1-4.3c0-1.9-0.4-3.3-1.1-4.4C160,12.6,159.1,12,157.9,12z"/>
	<path class="st1" d="M166.1,11h6v1l-1.3,0.1l-0.3,0.3v7.3c0,1.4,0.3,2.4,0.8,3c0.5,0.6,1.4,0.9,2.6,0.9c1.1,0,1.9-0.3,2.4-1
		c0.5-0.6,0.7-1.7,0.7-3.1v-7l-0.3-0.4l-1.3-0.1v-1h4.7v1l-1.3,0.1l-0.3,0.4v7.2c0,1.9-0.4,3.3-1.3,4.2c-0.9,0.9-2.3,1.3-4.2,1.3
		c-1,0-1.9-0.1-2.7-0.4c-0.8-0.3-1.4-0.7-1.8-1.3c-0.3-0.4-0.6-0.9-0.7-1.5c-0.1-0.6-0.2-1.4-0.2-2.4v-7.2l-0.3-0.3l-1.3-0.1V11z"/>
	<path class="st1" d="M181,11h6.3c1.6,0,2.8,0.3,3.7,0.9c0.8,0.6,1.2,1.5,1.2,2.7c0,1-0.3,1.7-0.9,2.3c-0.6,0.6-1.5,1-2.7,1.2
		c0.5,0.1,1,0.3,1.3,0.5c0.4,0.2,0.7,0.5,0.9,0.8c0.3,0.4,0.6,1.1,0.9,2.1c0.1,0.5,0.3,0.8,0.3,1c0.2,0.5,0.5,0.9,0.8,1.1
		c0.3,0.2,0.9,0.3,1.6,0.3h0.3v1c-0.4,0.1-0.8,0.1-1.1,0.1c-0.3,0-0.7,0-1,0c-0.4,0-0.8-0.1-1.2-0.2c-0.4-0.1-0.7-0.3-1-0.5
		c-0.6-0.5-1.1-1.3-1.5-2.4c0-0.2-0.1-0.3-0.1-0.4c-0.4-1.2-0.8-2-1.3-2.3c-0.5-0.4-1.1-0.5-2-0.5h-0.4v4.7l0.3,0.3l1.3,0.1v1H181
		v-1l1.2-0.1l0.3-0.3V12.4l-0.3-0.3L181,12V11z M185.3,12.2l0,5.4c0.1,0,0.2,0,0.3,0c0.1,0,0.3,0,0.5,0c1.1,0,2-0.2,2.5-0.7
		c0.5-0.5,0.8-1.2,0.8-2.1c0-0.9-0.3-1.5-0.8-2c-0.5-0.5-1.3-0.7-2.3-0.7H185.3z"/>
	<path class="st1" d="M194.9,25v-1l1.4-0.1l0.3-0.3V12.4l-0.3-0.3l-1.4-0.1v-1h6.2v1l-1.4,0.1l-0.3,0.3v11.1l0.3,0.3l1.4,0.1v1
		H194.9z"/>
	<path class="st1" d="M202.9,24.5v-3.8h1.6l0.3,2.5l0.3,0.3c0.3,0.1,0.6,0.2,0.9,0.2c0.3,0,0.6,0.1,0.9,0.1c0.8,0,1.5-0.2,2-0.5
		c0.5-0.4,0.7-0.8,0.7-1.4c0-0.5-0.2-1-0.5-1.4c-0.3-0.4-0.9-0.8-1.7-1.2c-0.1-0.1-0.3-0.2-0.6-0.3c-1-0.4-1.7-0.9-2.1-1.3
		c-0.5-0.4-0.8-0.8-1.1-1.3c-0.3-0.5-0.4-1-0.4-1.5c0-1.2,0.5-2.2,1.4-3c0.9-0.8,2.1-1.2,3.5-1.2c0.6,0,1.3,0.1,1.9,0.2
		c0.7,0.1,1.3,0.3,2,0.5v3.4h-1.5l-0.3-2.2l-0.3-0.3c-0.2-0.1-0.4-0.2-0.7-0.2c-0.3,0-0.5-0.1-0.9-0.1c-0.7,0-1.3,0.2-1.8,0.5
		c-0.4,0.4-0.7,0.8-0.7,1.4c0,0.4,0.1,0.8,0.4,1.2c0.3,0.3,0.7,0.7,1.3,1.1c0.1,0.1,0.6,0.3,1.2,0.6c0.7,0.3,1.3,0.6,1.7,0.9
		c0.6,0.4,1.1,0.9,1.4,1.4c0.3,0.5,0.5,1.1,0.5,1.7c0,1.3-0.5,2.3-1.5,3.1c-1,0.8-2.3,1.2-4,1.2c-0.7,0-1.4-0.1-2-0.2
		S203.6,24.8,202.9,24.5z"/>
	<path class="st1" d="M213.9,11h12v3.7h-1.4l-0.4-2.2l-0.3-0.3h-2.5v11.3l0.4,0.3L223,24v1h-6.2v-1l1.4-0.1l0.3-0.3V12.2H216
		l-0.3,0.3l-0.4,2.2h-1.4V11z"/>
	<path class="st1" d="M226.7,25v-1l1.4-0.1l0.3-0.3V12.4l-0.3-0.3l-1.4-0.1v-1h6.2v1l-1.4,0.1l-0.3,0.3v11.1l0.3,0.3L233,24v1H226.7
		z"/>
	<path class="st1" d="M246,24.5c-0.7,0.3-1.4,0.4-2.1,0.6c-0.7,0.1-1.5,0.2-2.2,0.2c-0.7,0-1.4-0.1-2.1-0.2
		c-0.7-0.2-1.2-0.4-1.8-0.7c-1.1-0.6-1.9-1.5-2.5-2.6c-0.6-1.1-0.9-2.3-0.9-3.7c0-1.1,0.2-2.1,0.6-3c0.4-0.9,0.9-1.7,1.6-2.4
		c0.7-0.6,1.4-1.1,2.3-1.4c0.9-0.3,1.9-0.5,2.9-0.5c0.7,0,1.4,0.1,2.1,0.2c0.7,0.1,1.4,0.3,2.1,0.6V15h-1.5l-0.4-2.2l-0.3-0.4
		c-0.3-0.1-0.6-0.2-0.8-0.2c-0.3-0.1-0.5-0.1-0.8-0.1c-1.5,0-2.6,0.5-3.5,1.6c-0.9,1.1-1.3,2.5-1.3,4.3c0,1.9,0.4,3.3,1.3,4.4
		c0.9,1.1,2.1,1.6,3.7,1.6c0.2,0,0.4,0,0.6-0.1c0.2,0,0.4-0.1,0.7-0.1l0.3-0.3l0.5-2.5h1.5V24.5z"/>
</g>
</svg>
